<?xml version="1.0" encoding="UTF-8"?>
<svg version="1.1" xmlns="http://www.w3.org/2000/svg" width="512" height="512">
<path d="M0 0 C1.01790619 0.00215515 2.03581238 0.0043103 3.08456421 0.00653076 C17.69363523 0.05620146 32.02575853 0.30709809 46.375 3.3125 C47.34985352 3.51117676 48.32470703 3.70985352 49.32910156 3.91455078 C97.7109774 14.03517194 141.69928269 35.9516877 177.375 70.3125 C178.3640332 71.26068604 178.3640332 71.26068604 179.37304688 72.22802734 C188.86130305 81.37247479 197.6012044 90.66984009 205.375 101.3125 C206.23306152 102.46355017 207.09113451 103.61459177 207.94921875 104.765625 C213.98736829 112.95680614 219.34595521 121.47054105 224.375 130.3125 C224.73948242 130.94430176 225.10396484 131.57610352 225.47949219 132.22705078 C247.08534998 169.97532572 256.85198095 212.74189997 256.6875 255.9375 C256.68534485 256.95540619 256.6831897 257.97331238 256.68096924 259.02206421 C256.63129854 273.63113523 256.38040191 287.96325853 253.375 302.3125 C253.07698486 303.77478027 253.07698486 303.77478027 252.77294922 305.26660156 C242.65232806 353.6484774 220.7358123 397.63678269 186.375 433.3125 C185.74287598 433.97185547 185.11075195 434.63121094 184.45947266 435.31054688 C175.31502521 444.79880305 166.01765991 453.5387044 155.375 461.3125 C154.22394983 462.17056152 153.07290823 463.02863451 151.921875 463.88671875 C143.73224019 469.92427396 135.22961724 475.30707302 126.375 480.3125 C125.66778809 480.7146875 124.96057617 481.116875 124.23193359 481.53125 C101.09654164 494.5566741 75.92537591 503.30551461 49.9375 508.625 C49.21860596 508.77235596 48.49971191 508.91971191 47.7590332 509.0715332 C33.08339502 511.86090125 18.55831162 512.66142619 3.64770508 512.62817383 C0.70811513 512.6250221 -2.2304558 512.64854926 -5.16992188 512.67382812 C-18.54306192 512.71848737 -31.43916711 511.51301542 -44.625 509.3125 C-46.33055054 509.03031616 -46.33055054 509.03031616 -48.07055664 508.74243164 C-91.33802759 500.97044532 -132.38793216 480.98345309 -165.625 452.3125 C-166.37007813 451.67828125 -167.11515625 451.0440625 -167.8828125 450.390625 C-181.38779833 438.57948485 -194.05918743 425.82889772 -204.625 411.3125 C-205.48149066 410.16255169 -206.33826433 409.01281411 -207.1953125 407.86328125 C-213.23534209 399.67315742 -218.61867614 391.16870382 -223.625 382.3125 C-224.0271875 381.60528809 -224.429375 380.89807617 -224.84375 380.16943359 C-237.8691741 357.03404164 -246.61801461 331.86287591 -251.9375 305.875 C-252.08485596 305.15610596 -252.23221191 304.43721191 -252.3840332 303.6965332 C-255.35789088 288.05024391 -255.99800362 272.57681954 -255.9375 256.6875 C-255.93534485 255.66959381 -255.9331897 254.65168762 -255.93096924 253.60293579 C-255.88129854 238.99386477 -255.63040191 224.66174147 -252.625 210.3125 C-252.42632324 209.33764648 -252.22764648 208.36279297 -252.02294922 207.35839844 C-241.90232806 158.9765226 -219.9858123 114.98821731 -185.625 79.3125 C-184.99287598 78.65314453 -184.36075195 77.99378906 -183.70947266 77.31445312 C-174.56502521 67.82619695 -165.26765991 59.0862956 -154.625 51.3125 C-153.47394983 50.45443848 -152.32290823 49.59636549 -151.171875 48.73828125 C-142.98224019 42.70072604 -134.47961724 37.31792698 -125.625 32.3125 C-124.91778809 31.9103125 -124.21057617 31.508125 -123.48193359 31.09375 C-100.34654164 18.0683259 -75.17537591 9.31948539 -49.1875 4 C-48.46860596 3.85264404 -47.74971191 3.70528809 -47.0090332 3.5534668 C-31.36274391 0.57960912 -15.88931954 -0.06050362 0 0 Z " fill="#000000" transform="translate(255.625,-0.3125)"/>
<path d="M0 0 C0.99185806 -0.00953201 1.98371613 -0.01906403 3.00563049 -0.02888489 C4.62114052 -0.02751778 4.62114052 -0.02751778 6.26928711 -0.02612305 C7.93102211 -0.03255074 7.93102211 -0.03255074 9.62632751 -0.03910828 C11.97760332 -0.04486227 14.32889692 -0.04534402 16.68017578 -0.04101562 C20.25772113 -0.03787594 23.83442346 -0.06123143 27.41186523 -0.08666992 C29.69767149 -0.08894499 31.98347995 -0.08964545 34.26928711 -0.08862305 C35.33212418 -0.09783279 36.39496124 -0.10704254 37.49000549 -0.11653137 C45.25009663 -0.06885914 53.21134874 0.71820622 59.17163086 6.2121582 C59.7169043 6.69555664 60.26217773 7.17895508 60.82397461 7.67700195 C65.09523891 12.51619059 64.64497105 17.56704547 64.55444336 23.7746582 C64.11121539 28.61773452 62.9957276 31.28568514 60.23413086 35.2746582 C58.09350586 36.4777832 58.09350586 36.4777832 56.23413086 37.2746582 C56.23413086 37.9346582 56.23413086 38.5946582 56.23413086 39.2746582 C57.06944336 39.3674707 57.06944336 39.3674707 57.92163086 39.4621582 C62.19551634 40.96379364 64.5870532 44.19099802 66.85522461 47.98950195 C69.53154447 54.36566342 69.54353581 62.27369863 67.39038086 68.8527832 C63.90807999 75.0173969 58.46534539 78.27782631 51.84228516 80.32104492 C46.31116488 81.66621949 40.8121397 81.56132262 35.14819336 81.5402832 C34.01006195 81.54219666 32.87193054 81.54411011 31.6993103 81.54608154 C29.30743182 81.5474367 26.91554581 81.54378724 24.52368164 81.53540039 C20.85017615 81.52463195 17.1771531 81.53534904 13.50366211 81.5480957 C11.17683811 81.54677516 8.85001441 81.54421494 6.52319336 81.5402832 C5.42117584 81.54433167 4.31915833 81.54838013 3.18374634 81.55255127 C2.16863983 81.54624695 1.15353333 81.53994263 0.10766602 81.53344727 C-0.78753754 81.53185608 -1.68274109 81.53026489 -2.60507202 81.52862549 C-4.76586914 81.2746582 -4.76586914 81.2746582 -6.76586914 79.2746582 C-6.96406196 76.81622898 -7.03868872 74.47046221 -7.0246582 72.01098633 C-7.02816284 71.26288193 -7.03166748 70.51477753 -7.03527832 69.7440033 C-7.04410004 67.26454461 -7.03824503 64.78536993 -7.03149414 62.3059082 C-7.03284067 60.58719833 -7.03478109 58.86848884 -7.03729248 57.14978027 C-7.04024434 53.5450478 -7.03594415 49.94041434 -7.02661133 46.33569336 C-7.01521673 41.70836761 -7.02177588 37.08127384 -7.03375626 32.4539566 C-7.04097321 28.90413658 -7.03868769 25.35437183 -7.03350067 21.80455017 C-7.03216372 20.09805779 -7.03381349 18.39156043 -7.03845978 16.68507385 C-7.04352236 14.30269015 -7.0358188 11.92068545 -7.0246582 9.53833008 C-7.02870667 8.82865585 -7.03275513 8.11898163 -7.03692627 7.38780212 C-6.98588038 1.52486292 -5.82649293 0.03070019 0 0 Z " fill="#FBFBFB" transform="translate(177.765869140625,214.725341796875)"/>
<path d="M0 0 C1.42761154 -0.00934319 1.42761154 -0.00934319 2.88406372 -0.01887512 C4.42621048 -0.0050605 4.42621048 -0.0050605 5.99951172 0.0090332 C7.59253616 0.00828545 7.59253616 0.00828545 9.21774292 0.00752258 C11.4689114 0.00986512 13.72008239 0.01960414 15.97119141 0.03613281 C19.39493651 0.05957981 22.81789501 0.05671281 26.24169922 0.05004883 C28.43180798 0.05563078 30.62191348 0.06274389 32.81201172 0.0715332 C33.82796417 0.0706218 34.84391663 0.06971039 35.89065552 0.06877136 C44.47510437 0.15307234 54.41659654 0.64880395 60.93310547 6.9465332 C66.85849935 13.52871773 67.76414581 18.99487415 67.61669922 27.78637695 C67.05401824 34.24314122 65.31026042 39.96526377 60.36669922 44.37231445 C57.69526941 46.11692167 55.33021527 47.39330926 52.30419922 48.37231445 C53.76733169 52.33226468 55.64149994 55.84159601 57.78076172 59.4777832 C58.45787687 60.63726983 59.13495926 61.79677559 59.81201172 62.95629883 C60.87519662 64.76751378 61.93982768 66.57786692 63.00537109 68.38769531 C64.03827088 70.14480946 65.06597061 71.90488596 66.09326172 73.6652832 C66.7089502 74.71224365 67.32463867 75.7592041 67.95898438 76.83789062 C69.30419922 79.37231445 69.30419922 79.37231445 69.30419922 81.37231445 C63.36419922 81.37231445 57.42419922 81.37231445 51.30419922 81.37231445 C50.24458984 79.45805664 49.18498047 77.54379883 48.09326172 75.5715332 C47.06427327 73.71467254 46.03484362 71.85805716 45.00537109 70.00146484 C44.29104198 68.71265826 43.57717065 67.42359784 42.86376953 66.13427734 C41.83730866 64.27935675 40.80919618 62.42536013 39.78076172 60.5715332 C39.16281738 59.45609131 38.54487305 58.34064941 37.90820312 57.19140625 C36.77988385 55.20834649 35.5697949 53.27070797 34.30419922 51.37231445 C32.1318244 50.90775611 32.1318244 50.90775611 29.62060547 50.97387695 C28.22938477 50.96807617 28.22938477 50.96807617 26.81005859 50.9621582 C25.83875 50.97375977 24.86744141 50.98536133 23.86669922 50.99731445 C22.89925781 50.98571289 21.93181641 50.97411133 20.93505859 50.9621582 C20.00628906 50.96602539 19.07751953 50.96989258 18.12060547 50.97387695 C16.84358765 50.97895264 16.84358765 50.97895264 15.54077148 50.98413086 C13.27706478 51.22764245 13.27706478 51.22764245 11.53515625 52.50976562 C9.75685539 55.20049495 9.86775119 57.36500057 9.79248047 60.5715332 C9.75703125 61.7800293 9.72158203 62.98852539 9.68505859 64.23364258 C9.6625 65.4962793 9.63994141 66.75891602 9.61669922 68.05981445 C9.58253906 69.33405273 9.54837891 70.60829102 9.51318359 71.92114258 C9.43059138 75.07144549 9.36147587 78.22146602 9.30419922 81.37231445 C6.65829908 81.39916124 4.01266826 81.41907802 1.36669922 81.43481445 C0.61195313 81.44319336 -0.14279297 81.45157227 -0.92041016 81.46020508 C-2.84574392 81.46883886 -4.77115659 81.42455778 -6.69580078 81.37231445 C-8.61895851 79.44915673 -7.85281663 75.85915061 -7.85693359 73.23803711 C-7.8618985 72.49168503 -7.8668634 71.74533295 -7.87197876 70.97636414 C-7.88663688 68.49635918 -7.89340855 66.01641819 -7.89892578 63.53637695 C-7.90467441 61.818634 -7.91043218 60.10089108 -7.91619873 58.38314819 C-7.92671924 54.77666931 -7.93255496 51.17021279 -7.93603516 47.5637207 C-7.94152087 42.9375371 -7.96554599 38.3116477 -7.99400711 33.68555641 C-8.01261172 30.13570284 -8.01783793 26.5859204 -8.01937103 23.03602219 C-8.02240324 21.33034024 -8.03045082 19.62465971 -8.04355621 17.91902542 C-8.06057102 15.53424837 -8.05874793 13.15019362 -8.05224609 10.76538086 C-8.06146088 10.05773087 -8.07067566 9.35008087 -8.08016968 8.62098694 C-8.05623842 5.82542265 -7.98429584 3.8275047 -6.4670105 1.43351746 C-4.17613286 0.06096049 -2.66789557 -0.00200705 0 0 Z " fill="#FAFAFA" transform="translate(383.69580078125,214.627685546875)"/>
<path d="M0 0 C1.18580658 0.00444122 2.37161316 0.00888245 3.59335327 0.01345825 C4.24713455 0.0131662 4.90091583 0.01287415 5.57450867 0.01257324 C7.73896483 0.01396839 9.90307822 0.02953783 12.06747437 0.04519653 C13.56677055 0.04892602 15.06606916 0.05177329 16.56536865 0.05377197 C20.5142793 0.06141355 24.46304316 0.08106644 28.41189575 0.10317993 C32.44029759 0.12362713 36.46872311 0.13277127 40.49716187 0.14285278 C48.40347928 0.16431192 56.30967732 0.19845409 64.21591187 0.24050903 C63.76394941 1.84648228 63.3040886 3.45023411 62.84091187 5.05300903 C62.4580603 6.3929895 62.4580603 6.3929895 62.06747437 7.76004028 C61.21591187 10.24050903 61.21591187 10.24050903 59.21591187 13.24050903 C57.19110107 13.60127258 57.19110107 13.60127258 54.67440796 13.58108521 C53.26317154 13.58074532 53.26317154 13.58074532 51.82342529 13.58039856 C50.80568024 13.5649147 49.78793518 13.54943085 48.73934937 13.53347778 C47.69896515 13.52923294 46.65858093 13.5249881 45.58666992 13.52061462 C42.25449039 13.50378386 38.92290946 13.46612325 35.59091187 13.42800903 C33.33571225 13.4129679 31.08050318 13.39927851 28.82528687 13.38699341 C23.2885969 13.35386587 17.75235596 13.30205313 12.21591187 13.24050903 C12.21591187 19.84050903 12.21591187 26.44050903 12.21591187 33.24050903 C25.08591187 33.24050903 37.95591187 33.24050903 51.21591187 33.24050903 C48.21591187 42.24050903 48.21591187 42.24050903 46.21591187 46.24050903 C44.88414917 46.25452759 44.88414917 46.25452759 43.52548218 46.26882935 C40.22245268 46.31291584 36.9207118 46.37455649 33.61825562 46.44802856 C32.19064249 46.47620514 30.76287433 46.4974363 29.33505249 46.51150513 C27.27890855 46.53298295 25.22462184 46.57964878 23.16903687 46.63113403 C21.31520386 46.66255493 21.31520386 46.66255493 19.42391968 46.6946106 C15.66996591 47.0151687 15.66996591 47.0151687 12.21591187 51.24050903 C11.88591187 56.85050903 11.55591187 62.46050903 11.21591187 68.24050903 C28.70591187 68.24050903 46.19591187 68.24050903 64.21591187 68.24050903 C61.21591187 77.24050903 61.21591187 77.24050903 59.21591187 81.24050903 C51.16667203 81.28679738 43.11748758 81.32236029 35.06814766 81.34413338 C31.33073357 81.35458201 27.59341036 81.36876074 23.85604858 81.39138794 C20.25100686 81.41307808 16.6460527 81.42506952 13.04095078 81.43026352 C11.66379289 81.43396619 10.28663993 81.44119637 8.9095192 81.45196915 C6.98451641 81.46643238 5.059426 81.46732551 3.1343689 81.46755981 C2.03738678 81.47200104 0.94040466 81.47644226 -0.18981934 81.48101807 C-2.78408813 81.24050903 -2.78408813 81.24050903 -4.78408813 79.24050903 C-4.98228095 76.78207981 -5.05690771 74.43631304 -5.0428772 71.97683716 C-5.04638184 71.22873276 -5.04988647 70.48062836 -5.05349731 69.70985413 C-5.06231903 67.23039544 -5.05646402 64.75122076 -5.04971313 62.27175903 C-5.05105966 60.55304916 -5.05300009 58.83433967 -5.05551147 57.1156311 C-5.05846333 53.51089863 -5.05416314 49.90626517 -5.04483032 46.30154419 C-5.03343572 41.67421844 -5.03999487 37.04712467 -5.05197525 32.41980743 C-5.05919221 28.86998741 -5.05690669 25.32022266 -5.05171967 21.770401 C-5.05038271 20.06390862 -5.05203248 18.35741126 -5.05667877 16.65092468 C-5.06174135 14.26854098 -5.0540378 11.88653628 -5.0428772 9.50418091 C-5.04692566 8.79450668 -5.05097412 8.08483246 -5.05514526 7.35365295 C-4.99487723 0.43149248 -4.99487723 0.43149248 0 0 Z " fill="#FAFAFA" transform="translate(282.7840881347656,214.75949096679688)"/>
<path d="M0 0 C5.61 0 11.22 0 17 0 C17.01401855 2.32973877 17.01401855 2.32973877 17.02832031 4.70654297 C17.06837768 10.50288931 17.13418099 16.29871368 17.20751953 22.09472656 C17.23563788 24.59693668 17.25689755 27.09923411 17.27099609 29.6015625 C17.29255159 33.21138925 17.33926921 36.8201762 17.390625 40.4296875 C17.39185364 41.53738495 17.39308228 42.6450824 17.39434814 43.78634644 C17.52732833 50.93718972 18.11808279 59.23866036 23.56707764 64.5184021 C28.31458519 67.86242168 33.91409221 67.59481032 39.5 67.5 C40.41136719 67.51546875 41.32273438 67.5309375 42.26171875 67.546875 C48.34829785 67.51174323 52.05402868 66.60181553 57 63 C60.14145739 57.97366818 61.10788288 53.52702742 61.20532227 47.68066406 C61.22526749 46.61986633 61.24521271 45.5590686 61.26576233 44.46612549 C61.28247482 43.32746033 61.29918732 42.18879517 61.31640625 41.015625 C61.33718735 39.84489441 61.35796844 38.67416382 61.37937927 37.46795654 C61.44475628 33.72869731 61.50370491 29.98936795 61.5625 26.25 C61.60569647 23.7148365 61.64931112 21.17968009 61.69335938 18.64453125 C61.80042563 12.42975935 61.90172671 6.21491691 62 0 C67.61 0 73.22 0 79 0 C79.09081766 7.25912543 79.16401089 14.51793397 79.20724869 21.77750969 C79.22801376 25.14941602 79.25612389 28.52090938 79.30175781 31.89257812 C79.35056663 35.78005653 79.37303643 39.66695735 79.390625 43.5546875 C79.41127014 44.74988007 79.43191528 45.94507263 79.45318604 47.17648315 C79.45590816 57.45168322 77.21107243 65.6443544 70.0546875 73.24609375 C61.43678445 80.60244065 51.08869803 82.3392567 40.125 82.25 C38.71154297 82.26160156 38.71154297 82.26160156 37.26953125 82.2734375 C26.63693473 82.24402506 17.09035838 80.5120104 8.984375 73.17578125 C2.03458253 65.74417544 -0.13763716 57.53233195 -0.11352539 47.45361328 C-0.11344986 46.39296661 -0.11337433 45.33231995 -0.11329651 44.23953247 C-0.10813522 43.11118988 -0.10297394 41.98284729 -0.09765625 40.8203125 C-0.09553383 39.06846146 -0.09553383 39.06846146 -0.09336853 37.28121948 C-0.08778498 33.56245326 -0.07523544 29.84374793 -0.0625 26.125 C-0.05748288 23.5989592 -0.05292034 21.07291746 -0.04882812 18.546875 C-0.03782093 12.36455998 -0.02056755 6.18229031 0 0 Z " fill="#FCFCFC" transform="translate(59,215)"/>
<path d="M0 0 C4.89393178 -0.09200081 9.78484642 -0.1715799 14.67895508 -0.21972656 C16.34247013 -0.23980207 18.00591496 -0.26706876 19.66918945 -0.30175781 C22.0647924 -0.35045766 24.45945992 -0.37300856 26.85546875 -0.390625 C27.96513252 -0.42159271 27.96513252 -0.42159271 29.09721375 -0.45318604 C32.788885 -0.45477859 34.812917 -0.12059871 37.9465332 1.89941406 C41.85042844 5.89288864 41.32773554 9.69476003 41.2890625 15.0703125 C40.91937945 18.81710017 39.89382205 20.60226173 37 23 C33.36766898 24.21077701 30.04878013 24.12444164 26.26953125 24.09765625 C25.51911057 24.0962413 24.76868988 24.09482635 23.99552917 24.09336853 C21.6011454 24.0877756 19.20685547 24.07522444 16.8125 24.0625 C15.18815239 24.05748408 13.56380332 24.05292134 11.93945312 24.04882812 C7.95957025 24.0386598 3.97989007 24.01908312 0 24 C0 16.08 0 8.16 0 0 Z " fill="#010101" transform="translate(393,228)"/>
<path d="M0 0 C1.07242699 -0.00929787 1.07242699 -0.00929787 2.16651917 -0.01878357 C3.67520795 -0.02587154 5.18397511 -0.02272538 6.69262695 -0.01000977 C8.99382456 0.00384555 11.2909434 -0.03020464 13.59179688 -0.06835938 C15.06119891 -0.06931079 16.530606 -0.06745052 18 -0.0625 C18.68348007 -0.07575821 19.36696014 -0.08901642 20.07115173 -0.10267639 C23.9039177 -0.0284769 25.47934709 0.49603821 28.49780273 2.93579102 C31.47156811 6.7174884 31.26942385 9.31219223 31.0625 13.96484375 C30.3377331 17.76558987 28.68686715 19.38934051 25.56640625 21.56640625 C21.93407523 22.77718326 18.61518638 22.69084789 14.8359375 22.6640625 C14.08551682 22.66264755 13.33509613 22.6612326 12.56193542 22.65977478 C10.16755165 22.65418185 7.77326172 22.64163069 5.37890625 22.62890625 C3.75455864 22.62389033 2.13020957 22.61932759 0.50585938 22.61523438 C-3.47399444 22.60421473 -7.45377819 22.58695498 -11.43359375 22.56640625 C-11.54165519 19.64874734 -11.62092252 16.735095 -11.68359375 13.81640625 C-11.71710938 12.99140625 -11.750625 12.16640625 -11.78515625 11.31640625 C-11.79804688 10.5171875 -11.8109375 9.71796875 -11.82421875 8.89453125 C-11.85563965 7.7947998 -11.85563965 7.7947998 -11.88769531 6.67285156 C-10.5293973 0.37210143 -5.54704211 -0.04013484 0 0 Z " fill="#050505" transform="translate(198.43359375,260.43359375)"/>
<path d="M0 0 C4.60916107 -0.09202984 9.21511369 -0.1715972 13.82446289 -0.21972656 C15.39097923 -0.23979558 16.95742109 -0.26705751 18.52368164 -0.30175781 C20.78029794 -0.35048754 23.03592083 -0.3730147 25.29296875 -0.390625 C25.98899704 -0.41127014 26.68502533 -0.43191528 27.40214539 -0.45318604 C30.96363275 -0.4548156 32.89846942 -0.06353132 35.94458008 1.8425293 C38 4 38 4 38.59375 6.91015625 C38.54734375 8.47056641 38.54734375 8.47056641 38.5 10.0625 C38.4896875 11.10535156 38.479375 12.14820313 38.46875 13.22265625 C37.94453995 16.32860081 37.50323558 17.17377586 35 19 C31.32338275 21.36253495 28.13352961 21.2306027 23.828125 21.1953125 C23.1457074 21.1924826 22.46328979 21.18965271 21.76019287 21.18673706 C19.58994693 21.17558098 17.42012029 21.15048557 15.25 21.125 C13.77474556 21.11496426 12.29948463 21.10583944 10.82421875 21.09765625 C7.21585603 21.07736175 3.60839496 21.03820653 0 21 C0 14.07 0 7.14 0 0 Z " fill="#080808" transform="translate(187,228)"/>
</svg>
